<?xml version="1.0" encoding="UTF-8"?><svg id="_图层_2" xmlns="http://www.w3.org/2000/svg" viewBox="0 0 87.79 78.14"><defs><style>.cls-1{fill:#ff737d;}</style></defs><g id="_图层_1-2"><g id="_生成式对象"><path class="cls-1" d="M66.96,60.38c-6.94,6.58-14.38,12.36-22.3,17.49-.5.32-1.03.37-1.56.02-9.07-5.91-17.54-12.66-25.2-20.41-4.26-4.31-8.03-8.87-11.28-13.96C2.55,37.19-.14,30.19,0,22.62.17,13.78,5.28,6,13.27,2.26c6.47-3.03,14.08-3.01,20.59.05,4.03,1.9,7.27,4.78,9.98,8.33C49.65,2.95,58.17-.99,67.64.25c12.01,1.55,20.71,12.07,20.12,24.15-.39,8.15-3.95,15.5-8.67,22.14-3.58,5.04-7.61,9.54-12.14,13.84Z"/></g></g></svg>