<?xml version="1.0" encoding="UTF-8"?><svg id="_图层_2" xmlns="http://www.w3.org/2000/svg" viewBox="0 0 416.47 391.7"><g id="_图层_1-2"><path d="M92.84,92.44c-2.45-2.77-3.67-6.21-3.67-10.3,0-1.79.21-3.82.64-6.08.43-2.26.88-4.46,1.35-6.59.47-2.13.79-3.5.97-4.09.69-2.98,1.33-5.93,1.93-8.83.6-2.9.9-5.25.9-7.04,0-4.35-1.55-6.52-4.64-6.52-2.23,0-4.21,1.09-5.93,3.26-1.72,2.18-3.09,5.01-4.12,8.51l-8.76,41.07h-18.56l9.41-44.14c.26-1.02.39-2.09.39-3.2,0-3.75-1.29-5.63-3.87-5.63-2.41,0-4.49,1.09-6.25,3.26-1.76,2.18-3.16,5.05-4.19,8.64l-8.76,41.07h-18.56l13.66-63.97h18.56l-1.42,6.65c4.38-4.86,9.62-7.29,15.72-7.29,7.56,0,11.98,3.67,13.27,11,4.72-7.25,10.7-10.88,17.91-10.88,4.38,0,7.86,1.2,10.44,3.58,2.58,2.39,3.87,6.01,3.87,10.88,0,2.47-.3,5.23-.9,8.25-.6,3.03-1.46,6.72-2.58,11.07-.69,2.64-1.31,5.23-1.87,7.74-.56,2.52-.84,4.5-.84,5.95,0,1.71.39,3.03,1.16,3.97.77.94,2.1,1.41,3.99,1.41,2.58,0,4.64-.92,6.19-2.75,1.55-1.83,3.09-4.67,4.64-8.51h5.41c-3.18,9.38-6.85,15.67-11.02,18.87-4.17,3.2-8.48,4.8-12.95,4.8-5.24,0-9.08-1.38-11.53-4.16Z"/><path d="M132.4,123.91c-3.05-2.6-4.57-5.91-4.57-9.92,0-3.75.94-6.82,2.83-9.21,1.89-2.39,4.34-4.27,7.35-5.63,3.01-1.37,7.04-2.81,12.11-4.35l1.29-5.63c-4.38,4.95-9.62,7.42-15.72,7.42-4.12,0-7.45-1.28-9.99-3.84-2.54-2.56-3.8-6.4-3.8-11.51,0-2.13.34-4.9,1.03-8.32l8.76-41.07h18.56l-9.28,43.5c-.26,1.02-.39,2.09-.39,3.2,0,3.75,1.29,5.63,3.87,5.63,2.4,0,4.47-1,6.19-3.01,1.72-2,3.09-4.75,4.12-8.25l8.76-41.07h18.68l-15.72,74.2c-1.72,8.19-4.75,13.86-9.08,17.02-4.34,3.15-9.13,4.73-14.37,4.73-4.04,0-7.58-1.3-10.63-3.9ZM144.45,114.06c1.37-1.58,2.45-4.12,3.22-7.61l1.55-7.55c-4.55,1.54-8.08,3.33-10.57,5.37-2.49,2.05-3.74,4.69-3.74,7.93,0,1.02.52,1.98,1.55,2.88s2.23,1.34,3.61,1.34c1.55,0,3.01-.79,4.38-2.37Z"/><path d="M212.94,92.75c-2.54-2.56-3.8-6.4-3.8-11.51,0-2.13.34-4.9,1.03-8.32l8.76-41.07h18.56l-9.28,43.5c-.26,1.02-.39,2.09-.39,3.2,0,3.75,1.29,5.63,3.87,5.63,2.4,0,4.47-1,6.19-3.01,1.72-2,3.09-4.75,4.12-8.25l8.76-41.07h18.56l-9.28,43.5c-.43,2.13-.64,3.67-.64,4.61,0,2.81,1.46,4.22,4.38,4.22,3.95,0,7.62-2.47,11.02-7.42,3.39-4.95,6.12-10.83,8.18-17.66,2.06-6.82,3.09-12.71,3.09-17.66-.17.43-.73.75-1.68.96-.95.21-1.76.32-2.45.32-1.46,0-2.6-.68-3.42-2.05-.82-1.36-1.22-2.86-1.22-4.48,0-2.05.66-3.71,2-4.99,1.33-1.28,3.33-1.92,5.99-1.92,2.83,0,4.9,1.04,6.19,3.13,1.29,2.09,1.93,4.76,1.93,8,0,7.68-1.33,15.89-3.99,24.63-2.66,8.74-6.74,16.18-12.24,22.33-5.5,6.14-12.33,9.21-20.49,9.21-4.21,0-7.65-.9-10.31-2.69-2.66-1.79-4.38-4.48-5.15-8.06-4.81,7.16-10.91,10.75-18.3,10.75-4.12,0-7.45-1.28-9.99-3.84Z"/><path d="M298.11,92.75c-2.54-2.56-3.8-6.4-3.8-11.51,0-2.13.34-4.9,1.03-8.32l8.76-41.07h18.56l-9.28,43.5c-.34,1.28-.52,2.64-.52,4.09,0,1.71.41,2.92,1.22,3.65.82.73,2.17,1.09,4.06,1.09,2.49,0,4.81-1.04,6.96-3.13,2.15-2.09,3.69-4.8,4.64-8.12h5.41c-3.18,9.21-7.26,15.46-12.24,18.74-4.98,3.29-9.92,4.93-14.82,4.93-4.12,0-7.45-1.28-9.99-3.84ZM309.65,22c-1.98-1.96-2.96-4.35-2.96-7.16s.99-5.22,2.96-7.23c1.98-2,4.38-3.01,7.22-3.01s5.26,1,7.28,3.01c2.02,2,3.03,4.41,3.03,7.23s-1.01,5.2-3.03,7.16c-2.02,1.96-4.45,2.94-7.28,2.94s-5.24-.98-7.22-2.94Z"/><path d="M307.52,123.91c-3.05-2.6-4.57-5.91-4.57-9.92,0-3.67.95-6.7,2.83-9.08,1.89-2.39,4.34-4.29,7.34-5.69,3.01-1.41,7-2.88,11.98-4.41l15.59-73.05c1.72-8.19,4.75-13.86,9.08-17.02,4.34-3.15,9.13-4.73,14.37-4.73,4.04,0,7.58,1.3,10.63,3.9,3.05,2.6,4.57,5.91,4.57,9.92,0,1.96-.13,3.71-.39,5.25h-6.06c.17-1.88.26-3.03.26-3.45,0-1.36-.47-2.43-1.42-3.2-.95-.77-2.11-1.15-3.48-1.15-1.8,0-3.57.79-5.28,2.37-1.72,1.58-2.96,4.29-3.74,8.12l-2.19,10.11h9.41l-.9,5.12h-9.54l-14.82,69.09c-1.72,8.27-4.68,13.96-8.89,17.08-4.21,3.11-8.93,4.67-14.17,4.67-4.04,0-7.58-1.3-10.63-3.9ZM322.53,106.44l1.68-7.42c-4.55,1.54-8.05,3.3-10.5,5.31-2.45,2-3.67,4.63-3.67,7.87,0,1.02.52,1.98,1.55,2.88,1.03.9,2.24,1.34,3.61,1.34,3.44,0,5.89-3.33,7.34-9.98Z"/><path d="M367.63,91.67c-3.52-3.28-5.28-8.42-5.28-15.42,0-5.88,1.16-12.37,3.48-19.45,2.32-7.08,6.1-13.2,11.34-18.36,5.24-5.16,11.9-7.74,19.97-7.74,9.45,0,14.17,4.09,14.17,12.28,0,4.78-1.38,9.17-4.12,13.18-2.75,4.01-6.4,7.23-10.95,9.66-4.55,2.43-9.41,3.82-14.56,4.16-.17,1.88-.26,3.16-.26,3.84,0,7.08,2.66,10.62,7.99,10.62,2.4,0,4.98-.64,7.73-1.92,2.75-1.28,5.24-2.9,7.47-4.86-2.32,12.62-9.75,18.93-22.29,18.93-6.27,0-11.17-1.64-14.69-4.93ZM391.8,60.64c2.88-2.05,5.2-4.67,6.96-7.87,1.76-3.2,2.64-6.54,2.64-10.04s-1.07-5.25-3.22-5.25c-3.01,0-5.99,2.71-8.96,8.12-2.96,5.42-5.18,11.5-6.64,18.23,3.26-.08,6.33-1.15,9.21-3.2Z"/><path d="M28.8,224.7c-2.54-2.56-3.8-6.4-3.8-11.51,0-2.13.34-4.9,1.03-8.32l13.79-64.1,19.07-2.56-14.82,69.09c-.34,1.28-.52,2.65-.52,4.09,0,1.71.41,2.92,1.22,3.65.82.73,2.17,1.09,4.06,1.09,2.49,0,4.81-1.04,6.96-3.13,2.15-2.09,3.69-4.8,4.64-8.12h5.41c-3.18,9.21-7.26,15.46-12.24,18.74-4.98,3.28-9.92,4.93-14.82,4.93-4.12,0-7.45-1.28-9.99-3.84Z"/><path d="M64.17,223.42c-3.69-3.24-5.54-8.36-5.54-15.35,0-5.8,1.2-12.24,3.61-19.32,2.4-7.08,6.27-13.2,11.6-18.36,5.33-5.16,12.03-7.74,20.1-7.74,11,0,16.49,6.83,16.49,20.47v.13c.26.09.73.13,1.42.13,2.83,0,6.1-.75,9.79-2.24,3.69-1.49,7.04-3.3,10.05-5.44l1.16,3.45c-2.49,2.65-5.73,4.88-9.73,6.72-3.99,1.84-8.36,3.13-13.08,3.9-.69,7.76-2.45,14.54-5.28,20.34-2.83,5.8-6.49,10.28-10.95,13.43-4.47,3.16-9.32,4.73-14.56,4.73-6.36,0-11.38-1.62-15.08-4.86ZM90.59,213.25c2.06-2.34,3.87-5.54,5.41-9.59,1.55-4.05,2.66-8.55,3.35-13.5-2.32-.51-3.48-2.3-3.48-5.37,0-3.5,1.33-5.8,3.99-6.91-.17-2.81-.6-4.75-1.29-5.82-.69-1.07-1.89-1.6-3.61-1.6-2.83,0-5.58,2.05-8.25,6.14-2.66,4.09-4.81,9-6.44,14.71-1.63,5.72-2.45,10.75-2.45,15.1,0,4.09.47,6.84,1.42,8.25.94,1.41,2.66,2.11,5.15,2.11,2.06,0,4.12-1.17,6.19-3.52Z"/><path d="M120.03,224.76c-2.79-2.51-4.19-6.29-4.19-11.32,0-2.05.22-4.09.64-6.14l9.28-43.5h18.56l-9.28,43.5c-.43,2.13-.64,3.67-.64,4.61,0,2.81,1.46,4.22,4.38,4.22,3.95,0,7.62-2.47,11.02-7.42,3.39-4.95,6.12-10.83,8.18-17.66,2.06-6.82,3.09-12.71,3.09-17.66-.17.43-.73.75-1.67.96-.95.21-1.76.32-2.45.32-1.46,0-2.6-.68-3.41-2.05-.82-1.36-1.22-2.86-1.22-4.48,0-2.05.66-3.71,2-4.99,1.33-1.28,3.33-1.92,5.99-1.92,2.83,0,4.9,1.05,6.19,3.13,1.29,2.09,1.93,4.76,1.93,8,0,7.68-1.33,15.89-3.99,24.63-2.66,8.74-6.75,16.18-12.24,22.33-5.5,6.14-12.33,9.21-20.49,9.21-4.98,0-8.87-1.26-11.66-3.77Z"/><path d="M173.96,223.61c-3.52-3.28-5.28-8.42-5.28-15.42,0-5.88,1.16-12.37,3.48-19.45,2.32-7.08,6.1-13.2,11.34-18.36,5.24-5.16,11.9-7.74,19.97-7.74,9.45,0,14.17,4.09,14.17,12.28,0,4.78-1.38,9.17-4.12,13.18-2.75,4.01-6.4,7.23-10.95,9.66-4.55,2.43-9.41,3.82-14.56,4.16-.17,2.56-.26,4.27-.26,5.12,0,4.18.73,7.02,2.19,8.51,1.46,1.49,3.82,2.24,7.09,2.24,4.64,0,8.61-1.07,11.92-3.2,3.31-2.13,6.94-5.37,10.89-9.72h4.38c-9.54,15.78-21.35,23.67-35.44,23.67-6.36,0-11.3-1.64-14.82-4.93ZM198.12,192.46c2.88-2.05,5.2-4.65,6.96-7.8,1.76-3.15,2.64-6.48,2.64-9.98s-1.08-5.25-3.22-5.25c-3.09,0-6.12,2.69-9.08,8.06-2.96,5.37-5.09,11.47-6.38,18.3,3.18-.17,6.21-1.28,9.08-3.33Z"/><path d="M224.08,226.17c-2.83-1.58-4.94-3.62-6.31-6.14-1.37-2.51-2.06-5.14-2.06-7.87s.67-5.27,2-7.36c1.33-2.09,2.94-3.6,4.83-4.54,3.35-5.97,6.27-12,8.76-18.1,2.49-6.1,4.85-12.69,7.09-19.77l19.07-2.56c.43,10.92,1.16,22.73,2.19,35.44.43,5.12.64,8.83.64,11.13,0,5.2-1.33,9.47-3.99,12.79-2.66,3.33-5.95,5.72-9.86,7.17-3.91,1.45-7.88,2.17-11.92,2.17s-7.6-.79-10.44-2.37ZM238.39,215.62c2.15-1.88,3.22-4.9,3.22-9.08,0-2.56-.26-6.14-.77-10.75-.86-9.72-1.42-16.25-1.67-19.58-2.06,6.74-5.54,14.8-10.44,24.18,1.98,1.02,2.96,2.52,2.96,4.48,0,1.62-.54,3.07-1.61,4.35-1.08,1.28-2.43,1.92-4.06,1.92-1.8,0-2.96-.55-3.48-1.66,0,3.07.62,5.33,1.87,6.78,1.24,1.45,3.24,2.17,5.99,2.17,3.18,0,5.84-.94,7.99-2.81Z"/><path d="M4.12,388.5c-2.75-2.13-4.12-5.2-4.12-9.21,0-8.27,7.04-14.63,21.13-19.06l13.79-64.48h18.56l-12.76,59.36c4.12-1.36,7.43-3.41,9.92-6.14,2.49-2.73,4.59-6.78,6.31-12.15h5.41c-2.32,7.59-5.46,13.16-9.41,16.7-3.95,3.54-8.42,5.95-13.4,7.23l-1.93,9.21c-1.72,8.27-4.68,13.96-8.89,17.08-4.21,3.11-8.98,4.67-14.3,4.67-4.12,0-7.56-1.07-10.31-3.2ZM15.72,378.78c1.38-1.96,2.45-4.78,3.22-8.44l.77-3.71c-8.42,3.07-12.63,6.69-12.63,10.87,0,1.11.39,2.09,1.16,2.94.77.85,1.85,1.28,3.22,1.28,1.46,0,2.88-.98,4.25-2.94ZM39.3,285.76c-1.98-1.96-2.96-4.35-2.96-7.16s.99-5.22,2.96-7.23c1.98-2,4.38-3.01,7.22-3.01s5.26,1,7.28,3.01c2.02,2,3.03,4.41,3.03,7.23s-1.01,5.2-3.03,7.16c-2.02,1.96-4.45,2.94-7.28,2.94s-5.24-.98-7.22-2.94Z"/><path d="M59.73,356.64c-2.54-2.56-3.8-6.4-3.8-11.51,0-2.13.34-4.9,1.03-8.32l8.76-41.07h18.56l-9.28,43.5c-.34,1.28-.52,2.64-.52,4.09,0,1.71.41,2.92,1.22,3.65.82.73,2.17,1.09,4.06,1.09,2.49,0,4.81-1.04,6.96-3.13,2.15-2.09,3.69-4.8,4.64-8.12h5.41c-3.18,9.21-7.26,15.46-12.24,18.74-4.98,3.29-9.92,4.93-14.82,4.93-4.12,0-7.45-1.28-9.99-3.84ZM71.26,285.89c-1.98-1.96-2.96-4.35-2.96-7.16s.99-5.22,2.96-7.23c1.98-2,4.38-3.01,7.22-3.01s5.26,1,7.28,3.01c2.02,2,3.03,4.41,3.03,7.23s-1.01,5.2-3.03,7.16c-2.02,1.96-4.45,2.94-7.28,2.94s-5.24-.98-7.22-2.94Z"/><path d="M126.35,356.32c-2.45-2.77-3.67-6.21-3.67-10.3,0-1.79.21-3.82.64-6.08.43-2.26.88-4.46,1.35-6.59.47-2.13.79-3.5.97-4.09.69-2.98,1.33-5.93,1.93-8.83.6-2.9.9-5.25.9-7.04,0-4.35-1.55-6.52-4.64-6.52-2.23,0-4.21,1.09-5.93,3.26-1.72,2.18-3.09,5.01-4.12,8.51l-8.76,41.07h-18.56l13.66-63.97h18.56l-1.42,6.65c4.29-4.78,9.32-7.16,15.08-7.16,4.38,0,7.86,1.2,10.44,3.58,2.58,2.39,3.87,6.01,3.87,10.88,0,2.47-.3,5.23-.9,8.25-.6,3.03-1.46,6.72-2.58,11.07-.69,2.64-1.31,5.23-1.87,7.74-.56,2.52-.84,4.5-.84,5.95,0,1.71.39,3.03,1.16,3.97.77.94,2.1,1.41,3.99,1.41,2.58,0,4.64-.92,6.19-2.75,1.55-1.83,3.09-4.67,4.64-8.51h5.41c-3.18,9.38-6.85,15.67-11.02,18.87-4.17,3.2-8.48,4.8-12.95,4.8-5.24,0-9.08-1.38-11.53-4.16Z"/><path d="M134.53,388.5c-2.75-2.13-4.12-5.2-4.12-9.21,0-8.27,7.04-14.63,21.13-19.06l13.79-64.48h18.56l-12.76,59.36c4.12-1.36,7.43-3.41,9.92-6.14,2.49-2.73,4.59-6.78,6.31-12.15h5.41c-2.32,7.59-5.46,13.16-9.41,16.7-3.95,3.54-8.42,5.95-13.4,7.23l-1.93,9.21c-1.72,8.27-4.68,13.96-8.89,17.08-4.21,3.11-8.98,4.67-14.3,4.67-4.12,0-7.56-1.07-10.31-3.2ZM146.12,378.78c1.38-1.96,2.45-4.78,3.22-8.44l.77-3.71c-8.42,3.07-12.63,6.69-12.63,10.87,0,1.11.39,2.09,1.16,2.94.77.85,1.85,1.28,3.22,1.28,1.46,0,2.88-.98,4.25-2.94ZM169.71,285.76c-1.98-1.96-2.96-4.35-2.96-7.16s.99-5.22,2.96-7.23c1.98-2,4.38-3.01,7.22-3.01s5.26,1,7.28,3.01c2.02,2,3.03,4.41,3.03,7.23s-1.01,5.2-3.03,7.16c-2.02,1.96-4.45,2.94-7.28,2.94s-5.24-.98-7.22-2.94Z"/><path d="M190.13,356.64c-2.54-2.56-3.8-6.4-3.8-11.51,0-2.13.34-4.9,1.03-8.32l8.76-41.07h18.56l-9.28,43.5c-.34,1.28-.52,2.64-.52,4.09,0,1.71.41,2.92,1.22,3.65.82.73,2.17,1.09,4.06,1.09,2.49,0,4.81-1.04,6.96-3.13,2.15-2.09,3.69-4.8,4.64-8.12h5.41c-3.18,9.21-7.26,15.46-12.24,18.74-4.98,3.29-9.92,4.93-14.82,4.93-4.12,0-7.45-1.28-9.99-3.84ZM201.66,285.89c-1.98-1.96-2.96-4.35-2.96-7.16s.99-5.22,2.96-7.23c1.98-2,4.38-3.01,7.22-3.01s5.26,1,7.28,3.01c2.02,2,3.03,4.41,3.03,7.23s-1.01,5.2-3.03,7.16c-2.02,1.96-4.45,2.94-7.28,2.94s-5.24-.98-7.22-2.94Z"/><path d="M224.98,355.49c-3.26-3.33-4.9-8.53-4.9-15.61,0-6.31,1.27-12.94,3.8-19.89,2.53-6.95,6.31-12.84,11.34-17.66,5.03-4.82,11.02-7.23,17.98-7.23,3.52,0,6.14.6,7.86,1.79,1.72,1.2,2.58,2.77,2.58,4.73v.9l1.42-6.78h18.56l-9.28,43.5c-.34,1.28-.52,2.64-.52,4.09,0,3.67,1.76,5.5,5.28,5.5,2.4,0,4.49-1.11,6.25-3.33,1.76-2.22,3.16-5.12,4.19-8.7h5.41c-3.18,9.21-7.11,15.46-11.79,18.74-4.68,3.29-9.39,4.93-14.11,4.93-3.61,0-6.51-1-8.7-3.01-2.19-2-3.5-4.93-3.93-8.76-2.49,3.5-5.26,6.33-8.31,8.51-3.05,2.17-6.68,3.26-10.89,3.26-4.9,0-8.98-1.66-12.24-4.99ZM251.98,345.06c2.1-2,3.54-4.75,4.32-8.25l6.19-28.91c0-1.11-.43-2.2-1.29-3.26-.86-1.07-2.19-1.6-3.99-1.6-3.44,0-6.53,1.98-9.28,5.95-2.75,3.97-4.9,8.74-6.44,14.33-1.55,5.59-2.32,10.51-2.32,14.78s.62,6.99,1.87,8.19c1.24,1.2,2.77,1.79,4.57,1.79,2.15,0,4.27-1,6.38-3.01Z"/><path d="M324.53,356.32c-2.45-2.77-3.67-6.21-3.67-10.3,0-1.79.21-3.82.64-6.08.43-2.26.88-4.46,1.35-6.59.47-2.13.79-3.5.97-4.09.69-2.98,1.33-5.93,1.93-8.83.6-2.9.9-5.25.9-7.04,0-4.35-1.55-6.52-4.64-6.52-2.23,0-4.21,1.09-5.93,3.26-1.72,2.18-3.09,5.01-4.12,8.51l-8.76,41.07h-18.56l13.66-63.97h18.56l-1.42,6.65c4.29-4.78,9.32-7.16,15.08-7.16,4.38,0,7.86,1.2,10.44,3.58,2.58,2.39,3.87,6.01,3.87,10.88,0,2.47-.3,5.23-.9,8.25-.6,3.03-1.46,6.72-2.58,11.07-.69,2.64-1.31,5.23-1.87,7.74-.56,2.52-.84,4.5-.84,5.95,0,1.71.39,3.03,1.16,3.97.77.94,2.1,1.41,3.99,1.41,2.58,0,4.64-.92,6.19-2.75,1.55-1.83,3.09-4.67,4.64-8.51h5.41c-3.18,9.38-6.85,15.67-11.02,18.87-4.17,3.2-8.48,4.8-12.95,4.8-5.24,0-9.08-1.38-11.53-4.16Z"/><path d="M366.66,387.8c-3.05-2.6-4.57-5.91-4.57-9.92,0-3.75.94-6.82,2.83-9.21,1.89-2.39,4.34-4.27,7.35-5.63,3.01-1.37,7.04-2.81,12.11-4.35l1.16-5.37c-4.47,4.78-9.62,7.16-15.46,7.16-4.9,0-8.98-1.66-12.24-4.99-3.26-3.33-4.9-8.53-4.9-15.61,0-6.31,1.27-12.94,3.8-19.89,2.53-6.95,6.31-12.84,11.34-17.66,5.03-4.82,11.02-7.23,17.98-7.23,3.52,0,6.14.6,7.86,1.79,1.72,1.2,2.58,2.77,2.58,4.73v.26l1.29-6.14h18.68l-15.72,74.2c-1.72,8.19-4.75,13.86-9.08,17.02-4.34,3.15-9.13,4.73-14.37,4.73-4.04,0-7.58-1.3-10.63-3.9ZM378.71,377.94c1.37-1.58,2.45-4.12,3.22-7.61l1.55-7.55c-4.55,1.54-8.08,3.33-10.57,5.37-2.49,2.05-3.74,4.69-3.74,7.93,0,1.02.52,1.98,1.55,2.88s2.23,1.34,3.61,1.34c1.55,0,3.01-.79,4.38-2.37ZM384.45,345.58c2.02-1.66,3.46-4.03,4.32-7.1l6.57-30.96c-.69-2.98-2.45-4.48-5.28-4.48-3.44,0-6.53,1.98-9.28,5.95-2.75,3.97-4.9,8.74-6.44,14.33-1.55,5.59-2.32,10.51-2.32,14.78s.62,6.99,1.87,8.19c1.24,1.2,2.77,1.79,4.57,1.79,1.98,0,3.97-.83,5.99-2.49Z"/></g></svg>