<?xml version="1.0" encoding="UTF-8"?><svg id="_图层_2" xmlns="http://www.w3.org/2000/svg" viewBox="0 0 67.4 23.9"><defs><style>.cls-1{fill:#fff;}</style></defs><g id="_图层_1-2"><path class="cls-1" d="M2.36,23.24c-.8-.44-1.39-1.02-1.78-1.73-.39-.71-.58-1.45-.58-2.21s.19-1.48.56-2.07c.38-.59.83-1.01,1.36-1.28.94-1.68,1.76-3.38,2.47-5.09.7-1.72,1.37-3.57,1.99-5.56l5.37-.72c.12,3.07.33,6.4.62,9.97.12,1.44.18,2.48.18,3.13,0,.55-.05,1.01-.15,1.37,1.14-.65,2.01-1.25,2.61-1.8h1.52c-1.55,1.78-3.4,3.28-5.55,4.5-.7.74-1.57,1.29-2.59,1.64-1.03.35-2.06.52-3.1.52-1.16,0-2.14-.22-2.94-.67ZM6.38,20.27c.6-.53.91-1.38.91-2.56,0-.72-.07-1.73-.22-3.02-.24-2.74-.4-4.57-.47-5.51-.58,1.9-1.56,4.16-2.94,6.8.56.29.83.71.83,1.26,0,.46-.15.86-.45,1.22-.3.36-.68.54-1.14.54-.51,0-.83-.16-.98-.47,0,.86.18,1.5.53,1.91.35.41.91.61,1.69.61.89,0,1.64-.26,2.25-.79Z"/><path class="cls-1" d="M15.79,22.82c-.71-.72-1.07-1.8-1.07-3.24,0-.6.1-1.38.29-2.34l2.18-10.12h-1.2l.29-1.44h1.2l1.09-4.97,5.37-.72-1.23,5.69h2.18l-.29,1.44h-2.18l-2.32,10.8c-.1.36-.15.74-.15,1.15,0,.48.11.82.34,1.03.23.2.61.31,1.14.31.7,0,1.35-.29,1.96-.88.6-.59,1.04-1.35,1.31-2.29h1.52c-.89,2.59-2.04,4.35-3.44,5.27s-2.79,1.39-4.17,1.39c-1.16,0-2.1-.36-2.81-1.08Z"/><path class="cls-1" d="M25.6,22.5c-.92-.94-1.38-2.4-1.38-4.39,0-1.78.36-3.64,1.07-5.6.71-1.96,1.78-3.61,3.19-4.97,1.41-1.36,3.1-2.03,5.06-2.03.99,0,1.73.17,2.21.5.48.34.73.78.73,1.33v.25l.4-1.91h5.22l-2.61,12.24c-.1.36-.15.74-.15,1.15,0,1.03.5,1.55,1.49,1.55.68,0,1.26-.31,1.76-.94.5-.62.89-1.44,1.18-2.45h1.52c-.89,2.59-2,4.35-3.32,5.27s-2.64,1.39-3.97,1.39c-1.02,0-1.83-.28-2.45-.85-.62-.56-.99-1.39-1.11-2.47-.7.98-1.48,1.78-2.34,2.39-.86.61-1.88.92-3.06.92-1.38,0-2.53-.47-3.44-1.4ZM33.19,19.57c.59-.56,1-1.34,1.21-2.32l1.74-8.14c0-.31-.12-.62-.36-.92-.24-.3-.62-.45-1.12-.45-.97,0-1.84.56-2.61,1.67-.77,1.12-1.38,2.46-1.81,4.03-.44,1.57-.65,2.96-.65,4.16s.18,1.97.53,2.3c.35.34.78.5,1.29.5.6,0,1.2-.28,1.79-.85Z"/><path class="cls-1" d="M46.23,5.69h5.22l-.47,2.23c.82-.72,1.56-1.27,2.23-1.66s1.38-.58,2.16-.58,1.38.26,1.83.79c.45.53.67,1.16.67,1.91,0,.7-.23,1.31-.69,1.84-.46.53-1.1.79-1.92.79-.53,0-.89-.13-1.07-.38-.18-.25-.32-.62-.42-1.1-.07-.31-.15-.54-.22-.68-.07-.14-.21-.22-.4-.22-.51,0-.94.1-1.29.31-.35.2-.8.56-1.36,1.06l-2.9,13.68h-5.22l3.84-18Z"/><path class="cls-1" d="M58.07,22.79c-.59-.74-.89-1.73-.89-2.95,0-.62.07-1.26.22-1.91l2.32-10.8h-1.2l.29-1.44h1.2l1.09-4.97,5.37-.72c-.22.91-.34,1.45-.36,1.62-.17.67-.46,2.03-.87,4.07h2.18l-.29,1.44h-2.18l-2.32,10.8c-.12.53-.18.95-.18,1.26,0,.86.42,1.3,1.27,1.3.44,0,.75-.04.94-.11-.48,1.39-1.05,2.33-1.7,2.81-.65.48-1.37.72-2.14.72-1.23,0-2.15-.37-2.74-1.12Z"/></g></svg>